Coordinates
version=1
nRows=17
nColumns=24
inDegrees=yes

Units are S.I. units (second, meters, Newtons, ...)
Angles are in degrees.

endheader
time	pelvis_tilt	pelvis_list	pelvis_rotation	pelvis_tx	pelvis_ty	pelvis_tz	hip_flexion_r	hip_adduction_r	hip_rotation_r	knee_angle_r	ankle_angle_r	subtalar_angle_r	mtp_angle_r	hip_flexion_l	hip_adduction_l	hip_rotation_l	knee_angle_l	ankle_angle_l	subtalar_angle_l	mtp_angle_l	lumbar_extension	lumbar_bending	lumbar_rotation
      4.29000000	    -13.71208669	      3.76654801	    -17.76416311	      1.89324426	     -0.03567535	     -0.44117999	     -4.73963900	     -2.41605656	      9.38470485	    -11.71786472	      0.95852471	     11.57602088	     16.49454063	     39.35011193	     -6.79098301	    -23.38976187	     -7.18148528	    -12.43393466	     10.60308583	     13.92431503	     12.48322568	     -2.24095363	     11.74753952
      4.29500000	    -13.68907237	      3.85348079	    -18.00185581	      1.90018614	     -0.03625892	     -0.44105849	     -4.87158732	     -2.68503764	      9.27040120	    -12.05711381	      0.55698099	     12.10183880	     16.79784861	     39.24103728	     -6.83955130	    -23.62036713	     -7.69353928	    -12.30168488	     10.42054117	     13.70041658	     12.57941904	     -2.31825137	     11.90035322
      4.30000000	    -13.66834941	      3.84472288	    -18.25002542	      1.90705459	     -0.03682314	     -0.44094811	     -5.00418282	     -2.83893734	      9.27143440	    -12.44328479	      0.11380571	     12.44605240	     16.91304681	     39.09656093	     -6.97133225	    -23.78231476	     -8.17600115	    -12.23551459	     10.21480437	     13.64250886	     12.63116189	     -2.29625536	     12.00175871
      4.30500000	    -13.63952630	      3.96734858	    -18.47379874	      1.91420506	     -0.03737741	     -0.44084573	     -5.11541539	     -3.15982005	      9.09509817	    -12.80625496	     -0.34901201	     13.03024673	     17.25091459	     38.91802585	     -6.94817823	    -24.06413397	     -8.58227946	    -12.27349699	     10.02285114	     13.49471582	     12.75725755	     -2.41064678	     12.15835664
      4.31000000	    -13.61863540	      4.00824058	    -18.73287956	      1.92118804	     -0.03788909	     -0.44076338	     -5.18865836	     -3.37947156	      9.03939364	    -13.24998112	     -0.84481350	     13.46302813	     17.44064131	     38.71773392	     -7.01271133	    -24.30916580	     -8.94872026	    -12.43008000	      9.77872035	     13.41662987	     12.83795968	     -2.42737165	     12.27432685
      4.31500000	    -13.57914684	      4.17004518	    -18.91252564	      1.92844793	     -0.03838113	     -0.44075552	     -5.26789816	     -3.75589825	      8.77507497	    -13.65323010	     -1.38466001	     14.11100643	     17.86735427	     38.49033130	     -6.89038794	    -24.62972204	     -9.21598647	    -12.82358140	      9.44279957	     13.37583731	     12.97044003	     -2.58816223	     12.40195800
      4.32000000	    -13.54412665	      4.31957477	    -19.12440933	      1.93564292	     -0.03881583	     -0.44072937	     -5.29539592	     -4.11158400	      8.54641043	    -14.12497619	     -1.97553750	     14.66935738	     18.28703996	     38.24388071	     -6.78765225	    -24.94922427	     -9.41707556	    -13.38537544	      8.97581957	     13.37848946	     13.09994199	     -2.72666161	     12.49523491
      4.32500000	    -13.53296521	      4.46901866	    -19.38263735	      1.94264353	     -0.03917201	     -0.44066796	     -5.23532864	     -4.45174034	      8.44563454	    -14.67485097	     -2.55604147	     15.20619177	     18.52808407	     38.02604824	     -6.72469857	    -25.30017639	     -9.60134478	    -14.11066492	      8.47885768	     13.27076370	     13.22898195	     -2.84829045	     12.66278143
      4.33000000	    -13.45381581	      4.67551808	    -19.45234796	      1.94992158	     -0.03946863	     -0.44084227	     -5.26761846	     -4.89866827	      7.93680497	    -15.17685213	     -3.27243609	     15.93542786	     19.12578966	     37.75091606	     -6.43303841	    -25.47570002	     -9.67737669	    -15.14082939	      7.63638015	     13.41461075	     13.32472681	     -3.09805719	     12.63517694
      4.33500000	    -13.46439200	      4.95389143	    -19.70408139	      1.95699876	     -0.03968702	     -0.44070950	     -5.08737700	     -5.35979242	      7.84724585	    -15.79426673	     -3.95523229	     16.41301147	     19.33765798	     37.57091331	     -6.24437531	    -25.82798003	     -9.79684476	    -16.07504805	      6.96975459	     13.19034524	     13.54477233	     -3.34647065	     12.83099289
      4.34000000	    -13.37692549	      5.21385962	    -19.71544801	      1.96422268	     -0.03981174	     -0.44096720	     -5.04506764	     -5.87339175	      7.21003760	    -16.37842700	     -4.81076972	     17.21031331	     19.97163534	     37.32588497	     -5.84285483	    -25.74790657	     -9.87219705	    -17.23908177	      5.80307901	     13.14643221	     13.64053325	     -3.67308070	     12.75746660
      4.34500000	    -13.33220771	      5.53820484	    -19.81620503	      1.97133604	     -0.03984610	     -0.44104572	     -4.86913860	     -6.42526518	      6.77030778	    -17.03436611	     -5.71788117	     17.87010202	     20.53397317	     37.14511085	     -5.46641266	    -25.70420024	    -10.01050936	    -18.25415656	      4.74636487	     12.83327106	     13.80759205	     -4.02943951	     12.81324378
      4.35000000	    -13.28422850	      5.90754471	    -19.84889279	      1.97850586	     -0.03980631	     -0.44113991	     -4.67874836	     -7.02120099	      6.26759611	    -17.68587022	     -6.76222633	     18.43515171	     21.30164686	     36.99407339	     -4.99872618	    -25.47192610	    -10.19735222	    -19.14908518	      3.64388245	     12.32223027	     13.99442050	     -4.45861673	     12.79674219
      4.35500000	    -13.23329890	      6.27014970	    -19.88751507	      1.98554358	     -0.03967960	     -0.44126978	     -4.41685974	     -7.62755837	      5.66740070	    -18.44934764	     -7.84033370	     19.17084498	     21.81766880	     36.87044651	     -4.53910435	    -25.12662078	    -10.46300855	    -19.85894003	      2.57734801	     11.70257489	     14.15675559	     -4.87849423	     12.80560902
      4.36000000	    -13.17887265	      6.64707399	    -19.86700389	      1.99258784	     -0.03948119	     -0.44144194	     -4.13783843	     -8.25405308	      4.99781091	    -19.22344214	     -9.08388967	     19.84227364	     22.52440531	     36.77260492	     -4.02245426	    -24.61008316	    -10.79063476	    -20.36945499	      1.52096299	     10.92532928	     14.31696774	     -5.33478495	     12.75514540
      4.36500000	    -13.13248612	      7.03969359	    -19.81995798	      1.99960516	     -0.03922528	     -0.44160809	     -3.81213880	     -8.90053179	      4.27287635	    -20.02701855	    -10.48354031	     20.45436187	     23.43149830	     36.70454347	     -3.47971262	    -24.03283017	    -11.17189522	    -20.65551723	      0.57322315	     10.05604782	     14.48829113	     -5.81539706	     12.68876735
      4.37000000	    -13.10116926	      7.45449909	    -19.76753392	      2.00658568	     -0.03893147	     -0.44176838	     -3.41349325	     -9.57668604	      3.51282545	    -20.88766907	    -12.01714813	     21.04433531	     24.41078601	     36.66854940	     -2.92533098	    -23.49057238	    -11.59234247	    -20.74197989	     -0.22519388	      9.21974604	     14.68165475	     -6.31522598	     12.63663819
